<svg width="62" height="62" viewBox="0 0 62 62" fill="none" xmlns="http://www.w3.org/2000/svg">
<rect width="62" height="62" rx="10" fill="#A9C2C4"/>
<path d="M41.2729 19.2354C41.2729 19.2354 44.2329 18.0812 43.9853 20.8842C43.9038 22.0384 43.164 26.0788 42.588 30.4482L40.6147 43.3928C40.6147 43.3928 40.4501 45.2892 38.9697 45.6191C37.4901 45.9482 35.27 44.4648 34.8586 44.1349C34.5294 43.8873 28.6918 40.1769 26.6362 38.3635C26.0602 37.8683 25.4019 36.8794 26.7185 35.7251L35.3515 27.4799C36.3382 26.491 37.3248 24.1824 33.2136 26.9854L21.7014 34.8177C21.7014 34.8177 20.3856 35.6428 17.9194 34.9007L12.5739 33.2512C12.5739 33.2512 10.6006 32.0147 13.972 30.7781C22.1951 26.9031 32.3093 22.9459 41.2714 19.2354H41.2729Z" fill="#DDEDEE"/>
</svg>
